<svg xmlns="http://www.w3.org/2000/svg" viewBox="0 0 600 400" role="img" aria-label="$;03 868=38=A:>3> @09>=0">
  <rect width="600" height="400" fill="#1a7a4c"/>
  <rect y="133" width="600" height="134" fill="#c9a227"/>
  <rect y="267" width="600" height="133" fill="#0057a8"/>
  <circle cx="300" cy="200" r="72" fill="#fff" opacity="0.95"/>
  <circle cx="300" cy="200" r="58" fill="none" stroke="#c9a227" stroke-width="3"/>
  <path d="M300 155c-8 0-14 6-14 14 0 10 8 16 14 22 6-6 14-12 14-22 0-8-6-14-14-14z" fill="#1a7a4c"/>
  <path d="M270 210c5 18 15 32 30 42 15-10 25-24 30-42H270z" fill="#0057a8"/>
  <path d="M255 195h90v8c-12 4-22 6-45 6s-33-2-45-6v-8z" fill="#c9a227"/>
</svg>
